<!--?xml version="1.0" encoding="utf-8"?-->
<!-- Generator: Adobe Illustrator 15.1.0, SVG Export Plug-In . SVG Version: 6.00 Build 0)  -->

<svg version="1.1" id="_x32_" xmlns="http://www.w3.org/2000/svg" xmlns:xlink="http://www.w3.org/1999/xlink" x="0px" y="0px" width="512px" height="512px" viewBox="0 0 512 512" style="width: 64px; height: 64px; opacity: 1;" xml:space="preserve">
<style type="text/css">

	.st0{fill:#4B4B4B;}

</style>
<g>
	<path class="st0" d="M404.617,266.781c0-22.031-18.438-47.188-56.125-62.125c-40.031-15.859-46.094-22.063-47.156-42.594
		c-1-19.594,9.766-73.859,9.781-105.25C311.102,25.438,285.664,0,254.289,0s-56.828,25.438-56.828,56.813
		c0,31.391,9.328,82.984,9.766,105.25c0.422,20.563-7.125,26.734-47.141,42.594c-37.688,14.938-56.125,40.094-56.125,62.125v19.375
		l300.656,0.016V266.781z M254.289,77.938c-11.656,0-21.109-9.453-21.109-21.125c0-11.656,9.453-21.094,21.109-21.094
		s21.109,9.438,21.109,21.094C275.398,68.484,265.945,77.938,254.289,77.938z" style="fill: rgb(121, 85, 72);"></path>
	<path class="st0" d="M407.727,469.188l-20.438-155.625H124.711l-20.438,155.625c-1.422,10.813,1.891,21.719,9.094,29.906
		C120.555,507.313,130.93,512,141.836,512h138.25c5.234,0,9.797-3.594,11.047-8.672l13.984-57.484l15.172,57.688
		c1.313,5,5.828,8.469,10.984,8.469h38.891c10.906,0,21.281-4.688,28.469-12.906C405.836,490.906,409.148,480,407.727,469.188z" style="fill: rgb(121, 85, 72);"></path>
</g>
</svg>
