<!--?xml version="1.0" encoding="utf-8"?-->
<!-- Generator: Adobe Illustrator 18.1.1, SVG Export Plug-In . SVG Version: 6.00 Build 0)  -->

<svg version="1.1" id="_x32_" xmlns="http://www.w3.org/2000/svg" xmlns:xlink="http://www.w3.org/1999/xlink" x="0px" y="0px" viewBox="0 0 512 512" style="width: 48px; height: 48px; opacity: 1;" xml:space="preserve">
<style type="text/css">
	.st0{fill:#4B4B4B;}
</style>
<g>
	<path class="st0" d="M315.793,384.677c-1.022-2.399-0.719-6.353-0.208-9.403c3.517-20.754,10.055-36.251,17.674-47.853
		c-14.556-16.438-30.498-18.881-31.275-18.984l-3.006-0.348c-5.287,13.668-13.431,32.037-19.421,48.852
		c-1.763,4.939-4.184,9.996-7.049,12.01c-2.865,2.014-9.467,3.199-15.05,4.828c-26.081,7.611-45.14,31.69-45.128,60.226
		c0,34.636,28.084,62.728,62.724,62.728c34.637,0,62.721-28.076,62.721-62.72c0.008-17.141-6.872-32.653-18.015-43.989
		C317.881,388.128,316.821,387.062,315.793,384.677z M275.055,467.915c-18.725,0-33.907-15.186-33.907-33.911
		c0-18.718,15.182-33.904,33.907-33.904c18.732-0.008,33.911,15.171,33.904,33.904C308.958,452.729,293.773,467.915,275.055,467.915
		z" style="fill: rgb(75, 75, 75);"></path>
	<path class="st0" d="M460.797,471.729c7.914-10.507,12.602-23.561,12.616-37.724c-0.007-28.536-19.065-52.615-45.15-60.226
		c-5.576-1.629-12.173-2.814-15.046-4.828c-2.858-2.021-5.279-7.063-7.041-12.01c-8.641-24.241-21.776-51.785-24.316-63.646
		c0,0-16.948-225.487-20.347-254.312C358.122,10.166,353.043,0,342.862,0c-10.166-0.015-15.26,10.166-18.651,38.983
		c-3.376,28.825-20.347,254.312-20.347,254.312s53.407,5.923,66.275,81.979c0.518,3.05,0.815,7.012-0.215,9.403
		c-1.014,2.392-2.08,3.45-3.961,5.361c-11.128,11.313-18.014,26.832-18.014,43.966c0.008,34.652,28.084,62.728,62.728,62.728
		c11.847,0,22.931-3.288,32.394-9.004C464.528,507.069,482.439,512,482.439,512l10.173-18.658
		C477.167,488.714,463.173,474.283,460.797,471.729z M342.862,283.122c-6.553,0-11.862-5.316-11.862-11.869
		c0-6.553,5.316-11.869,11.862-11.862c6.552,0,11.861,5.309,11.861,11.862C354.739,277.798,349.415,283.122,342.862,283.122z
		 M410.677,467.915c-18.725,0-33.911-15.186-33.904-33.903c0.008-18.74,15.179-33.912,33.896-33.912
		c18.733-0.008,33.919,15.171,33.912,33.912C444.581,452.737,429.41,467.908,410.677,467.915z" style="fill: rgb(75, 75, 75);"></path>
	<path class="st0" d="M147.08,4.532H32.789c-7.389,0-13.402,6.012-13.402,13.401v26.715c0,6.204,5.049,11.254,11.254,11.254h81.912
		c10.636,0,19.292,8.663,19.292,19.31c0,10.633-8.656,19.281-19.292,19.281H30.642c-6.205,0-11.254,5.05-11.254,11.254v11.832
		c0,6.205,5.049,11.255,11.254,11.255h81.912c10.636,0,19.292,8.655,19.292,19.295c0,10.64-8.656,19.295-19.292,19.295H30.642
		c-6.205,0-11.254,5.05-11.254,11.255v11.847c0,6.205,5.049,11.254,11.254,11.254h81.912c10.636,0,19.292,8.656,19.292,19.295
		c0,10.632-8.656,19.281-19.292,19.281H30.642c-6.205,0-11.254,5.05-11.254,11.254v11.847c0,6.205,5.049,11.255,11.254,11.255
		h81.912c10.636,0,19.292,8.648,19.292,19.28c0,10.64-8.656,19.295-19.292,19.295H30.642c-6.205,0-11.254,5.05-11.254,11.255v11.847
		c0,6.204,5.049,11.254,11.254,11.254h81.912c10.636,0,19.292,8.656,19.292,19.295c0,10.632-8.656,19.281-19.292,19.281H30.642
		c-6.205,0-11.254,5.05-11.254,11.254v11.847c0,6.205,5.049,11.254,11.254,11.254h81.912c10.636,0,19.292,8.648,19.292,19.281
		c0,10.64-8.656,19.295-19.292,19.295H30.642c-6.205,0-11.254,5.05-11.254,11.255v23.664c0,7.39,6.012,13.401,13.402,13.401H147.08
		c19.244,0,34.897-15.66,34.897-34.903V39.435C181.977,20.191,166.324,4.532,147.08,4.532z" style="fill: rgb(75, 75, 75);"></path>
</g>
</svg>
